<svg xmlns="http://www.w3.org/2000/svg" viewBox="0 0 760 520" role="img" aria-label="Calm abstract illustration">
  <defs>
    <linearGradient id="bg" x1="0" x2="1" y1="0" y2="1">
      <stop offset="0" stop-color="#E6F6F7"/>
      <stop offset="1" stop-color="#F7F3EE"/>
    </linearGradient>
  </defs>
  <rect width="760" height="520" rx="36" fill="url(#bg)"/>
  <path d="M0 360c110-70 210-92 330-64s210 86 430 34v190H0z" fill="#2CB1BC" opacity="0.22"/>
  <path d="M0 420c120-50 240-62 360-34s220 70 400 18v116H0z" fill="#102A43" opacity="0.10"/>
  <circle cx="540" cy="170" r="92" fill="#FF6B6B" opacity="0.14"/>
  <circle cx="200" cy="200" r="120" fill="#2CB1BC" opacity="0.12"/>
  <path d="M380 130c22 0 40 18 40 40s-18 40-40 40-40-18-40-40 18-40 40-40z" fill="#102A43" opacity="0.10"/>
  <path d="M380 152c10 0 18 8 18 18s-8 18-18 18-18-8-18-18 8-18 18-18z" fill="#F7F3EE" opacity="0.9"/>
</svg>
