<svg xmlns="http://www.w3.org/2000/svg" viewBox="0 0 520 140" role="img" aria-label="Harborlight Counseling & Wellness logo">
  <defs>
    <linearGradient id="g" x1="0" x2="1" y1="0" y2="1">
      <stop offset="0" stop-color="#2CB1BC"/>
      <stop offset="1" stop-color="#102A43"/>
    </linearGradient>
    <filter id="s" x="-20%" y="-20%" width="140%" height="140%">
      <feDropShadow dx="0" dy="3" stdDeviation="3" flood-color="#102A43" flood-opacity="0.18"/>
    </filter>
  </defs>
  <g transform="translate(18,18)" filter="url(#s)">
    <circle cx="52" cy="52" r="46" fill="#E6F6F7" stroke="#2CB1BC" stroke-width="3"/>
    <path d="M52 16c10 0 18 8 18 18v2h-36v-2c0-10 8-18 18-18z" fill="#102A43"/>
    <path d="M38 38h28l-6 56H44z" fill="url(#g)"/>
    <rect x="46" y="50" width="12" height="10" rx="2" fill="#F7F3EE"/>
    <path d="M52 28l22 8-22 8-22-8z" fill="#2CB1BC" opacity="0.95"/>
    <path d="M76 36c18 6 30 14 36 24-15-8-28-12-44-14z" fill="#FF6B6B" opacity="0.28"/>
    <path d="M28 36c-18 6-30 14-36 24 15-8 28-12 44-14z" fill="#FF6B6B" opacity="0.28"/>
    <path d="M18 92c18-10 32-14 56-14s38 4 56 14" fill="none" stroke="#2CB1BC" stroke-width="4" stroke-linecap="round"/>
  </g>
  <g transform="translate(130,24)">
    <text x="0" y="46" font-family="Fraunces, ui-serif, Georgia, serif" font-size="44" fill="#102A43" letter-spacing="0.2">Harborlight</text>
    <text x="2" y="82" font-family="Inter, ui-sans-serif, system-ui, -apple-system, Segoe UI, Roboto, Arial, sans-serif" font-size="18" fill="#243B53" letter-spacing="0.3">Counseling &amp; Wellness</text>
  </g>
</svg>
