<?xml version="1.0" encoding="UTF-8"?>
<svg width="640" height="180" viewBox="0 0 640 180" fill="none" xmlns="http://www.w3.org/2000/svg" role="img" aria-label="Paws & Pines Veterinary Care logo">
  <defs>
    <linearGradient id="g" x1="40" y1="20" x2="140" y2="160" gradientUnits="userSpaceOnUse">
      <stop stop-color="#2D6A4F"/>
      <stop offset="1" stop-color="#1B4332"/>
    </linearGradient>
    <filter id="s" x="-20%" y="-20%" width="140%" height="140%">
      <feDropShadow dx="0" dy="6" stdDeviation="6" flood-color="#000" flood-opacity=".18"/>
    </filter>
  </defs>

  <!-- Mark -->
  <g filter="url(#s)">
    <circle cx="95" cy="90" r="58" fill="#F7F3E9" stroke="#D8F3DC" stroke-width="6"/>
    <circle cx="95" cy="90" r="54" fill="url(#g)"/>
  </g>

  <!-- Pine tree -->
  <path d="M95 45 L72 74 H84 L64 98 H79 L58 124 H132 L111 98 H126 L106 74 H118 L95 45Z" fill="#D8F3DC" opacity=".95"/>
  <rect x="90" y="120" width="10" height="18" rx="2" fill="#D8F3DC" opacity=".95"/>

  <!-- Paw -->
  <g transform="translate(118 102)">
    <path d="M-8 24c0-6 5-10 11-10s11 4 11 10c0 5-4 9-11 9S-8 29-8 24Z" fill="#F7F3E9"/>
    <circle cx="-6" cy="10" r="4.2" fill="#F7F3E9"/>
    <circle cx="4" cy="7.5" r="4.2" fill="#F7F3E9"/>
    <circle cx="14" cy="10" r="4.2" fill="#F7F3E9"/>
    <circle cx="2.5" cy="0.5" r="3.8" fill="#F7F3E9"/>
  </g>

  <!-- Wordmark -->
  <g transform="translate(170 52)">
    <text x="0" y="44" font-family="Fraunces, serif" font-size="40" font-weight="600" fill="#0F172A">Paws &amp; Pines</text>
    <text x="0" y="78" font-family="Plus Jakarta Sans, system-ui, -apple-system, Segoe UI, Roboto, Arial, sans-serif" font-size="18" font-weight="600" fill="#2D6A4F">Veterinary Care</text>
  </g>
</svg>
