<?xml version="1.0" encoding="UTF-8"?>
<svg xmlns="http://www.w3.org/2000/svg" width="1200" height="630" viewBox="0 0 1200 630">
  <defs>
    <linearGradient id="bg" x1="0" y1="0" x2="1" y2="1">
      <stop offset="0" stop-color="#07162B"/>
      <stop offset="1" stop-color="#0EA5A4"/>
    </linearGradient>
    <filter id="shadow" x="-20%" y="-20%" width="140%" height="140%">
      <feDropShadow dx="0" dy="12" stdDeviation="18" flood-color="#000" flood-opacity="0.25"/>
    </filter>
  </defs>
  <rect width="1200" height="630" fill="url(#bg)"/>
  <g transform="translate(92,96)" filter="url(#shadow)">
    <rect width="1016" height="438" rx="36" fill="#FFFFFF" fill-opacity="0.10" stroke="#FFFFFF" stroke-opacity="0.25"/>
  </g>
  <g transform="translate(140,150)">
    <g transform="translate(0,0)">
      <rect x="0" y="0" width="170" height="170" rx="34" fill="#0B1F3A"/>
      <path d="M36 138 L85 44 L134 138 Z" fill="url(#bg)"/>
      <path d="M40 120 C62 104, 108 104, 130 120" fill="none" stroke="#EAF3FF" stroke-width="10" stroke-linecap="round"/>
      <g transform="translate(115,50)">
        <rect x="0" y="12" width="34" height="10" rx="5" fill="#EAF3FF"/>
        <rect x="12" y="0" width="10" height="34" rx="5" fill="#EAF3FF"/>
      </g>
    </g>
    <text x="210" y="64" font-family="Inter, system-ui, -apple-system, Segoe UI, Roboto, Arial, sans-serif" font-size="64" font-weight="800" fill="#FFFFFF">PeakPoint</text>
    <text x="214" y="112" font-family="Inter, system-ui, -apple-system, Segoe UI, Roboto, Arial, sans-serif" font-size="26" font-weight="600" fill="#BFF6F2" letter-spacing="2">ORTHOPEDICS &amp; SPORTS MEDICINE</text>
    <text x="214" y="168" font-family="Inter, system-ui, -apple-system, Segoe UI, Roboto, Arial, sans-serif" font-size="30" font-weight="500" fill="#FFFFFF" opacity="0.92">Orthopedic and sports medicine care designed to keep you moving.</text>
    <g transform="translate(214,214)">
      <rect width="330" height="56" rx="16" fill="#0EA5A4"/>
      <text x="24" y="37" font-family="Inter, system-ui, -apple-system, Segoe UI, Roboto, Arial, sans-serif" font-size="22" font-weight="700" fill="#07162B">Call (555) 907-1148</text>
    </g>
  </g>
</svg>
