<?xml version="1.0" encoding="UTF-8"?>
<svg width="256" height="256" viewBox="0 0 256 256" xmlns="http://www.w3.org/2000/svg" role="img" aria-label="Calder & Rowe Legal Services mark">
  <defs>
    <linearGradient id="g" x1="0" y1="0" x2="1" y2="1">
      <stop offset="0" stop-color="#C8A45D"/>
      <stop offset="1" stop-color="#E6D19A"/>
    </linearGradient>
  </defs>
  <rect x="0" y="0" width="256" height="256" rx="56" fill="#0B1B2B"/>
  <g transform="translate(34,40)">
    <path d="M28 144 C28 92, 66 54, 118 54 C170 54, 208 92, 208 144" fill="none" stroke="url(#g)" stroke-width="12" stroke-linecap="round"/>
    <path d="M52 144 C52 106, 80 78, 118 78 C156 78, 184 106, 184 144" fill="none" stroke="#E6D19A" stroke-width="10" stroke-linecap="round" opacity="0.75"/>
    <line x1="118" y1="76" x2="118" y2="138" stroke="#E6D19A" stroke-width="10" stroke-linecap="round"/>
    <line x1="78" y1="96" x2="158" y2="96" stroke="#E6D19A" stroke-width="10" stroke-linecap="round"/>
    <line x1="88" y1="96" x2="66" y2="120" stroke="#E6D19A" stroke-width="8" stroke-linecap="round"/>
    <line x1="148" y1="96" x2="170" y2="120" stroke="#E6D19A" stroke-width="8" stroke-linecap="round"/>
    <path d="M44 120 L88 120 L66 150 Z" fill="#E6D19A"/>
    <path d="M148 120 L192 120 L170 150 Z" fill="#E6D19A"/>
  </g>
</svg>
