<?xml version="1.0" encoding="UTF-8"?>
<svg width="420" height="120" viewBox="0 0 420 120" xmlns="http://www.w3.org/2000/svg" role="img" aria-label="Calder & Rowe Legal Services logo">
  <defs>
    <linearGradient id="g" x1="0" y1="0" x2="1" y2="1">
      <stop offset="0" stop-color="#C8A45D"/>
      <stop offset="1" stop-color="#E6D19A"/>
    </linearGradient>
  </defs>

  <!-- Icon: arch + balanced scales (original, simple geometry) -->
  <g transform="translate(18,14)">
    <path d="M42 74 C42 44, 64 22, 94 22 C124 22, 146 44, 146 74" fill="none" stroke="#0B1B2B" stroke-width="6" stroke-linecap="round"/>
    <path d="M58 74 C58 52, 74 36, 94 36 C114 36, 130 52, 130 74" fill="none" stroke="url(#g)" stroke-width="6" stroke-linecap="round"/>
    <line x1="94" y1="34" x2="94" y2="70" stroke="#0B1B2B" stroke-width="5" stroke-linecap="round"/>
    <line x1="70" y1="46" x2="118" y2="46" stroke="#0B1B2B" stroke-width="5" stroke-linecap="round"/>
    <line x1="76" y1="46" x2="64" y2="60" stroke="#0B1B2B" stroke-width="4" stroke-linecap="round"/>
    <line x1="112" y1="46" x2="124" y2="60" stroke="#0B1B2B" stroke-width="4" stroke-linecap="round"/>
    <path d="M52 60 L76 60 L64 76 Z" fill="#0B1B2B" opacity="0.95"/>
    <path d="M112 60 L136 60 L124 76 Z" fill="#0B1B2B" opacity="0.95"/>
  </g>

  <!-- Wordmark -->
  <g transform="translate(190,40)">
    <text x="0" y="0" font-family="Playfair Display, serif" font-size="34" fill="#0B1B2B" font-weight="600">Calder &amp; Rowe</text>
    <text x="0" y="30" font-family="Inter, system-ui, -apple-system, Segoe UI, Roboto, sans-serif" font-size="14" fill="#34536B" letter-spacing="0.12em">LEGAL SERVICES</text>
  </g>
</svg>
